<svg id="Layer_1" data-name="Layer 1" xmlns="http://www.w3.org/2000/svg" viewBox="0 0 316.93 229.86"><defs><style>.cls-1{fill:#231f20;}</style></defs><path class="cls-1" d="M213.49,202.59a8.88,8.88,0,0,0,2.18,9.2,2.53,2.53,0,0,0,4.17-1.11,159.13,159.13,0,0,0,8.82-39.25,2.52,2.52,0,0,0-2.5-2.5,2.57,2.57,0,0,0-2.5,2.5A59.82,59.82,0,0,0,225.4,194c.53,1.93,3.64,2.61,4.57.6L247.39,157c1.33-2.87-2.69-5.36-4.32-2.52a64,64,0,0,0-8.29,36.83c.14,1.7,2.09,3.36,3.76,2.16A53.19,53.19,0,0,0,257.7,168l-4.82-1.33-7.31,25.6c-.65,2.27,1.79,3.67,3.68,2.82,8.11-3.64,14.06-10.56,18.65-18,5.09-8.23,9.08-17.21,13-26a447.86,447.86,0,0,0,21.68-59.51Q307.51,74.3,311,56.69c.38-1.89-1.76-4.24-3.67-2.82-22.07,16.45-36.61,40.35-46,65.89a260.2,260.2,0,0,0-10.84,39.66c-1.21,6.22-2.88,13.28.12,19.25,3.27,6.53,11,7.43,17.18,5,6.49-2.51,11.75-7.34,16.65-12.15a122.59,122.59,0,0,0,31.89-54q1.41-5,2.36-10.17c.67-3.62,1.53-7.57-.05-11.07-2.75-6.08-10.36-6.1-16-5.25a400.68,400.68,0,0,0-46.45,10.19,456.43,456.43,0,0,0-88.95,34.92q-5.26,2.75-10.47,5.62a2.52,2.52,0,0,0,1.26,4.66,204.66,204.66,0,0,0,80.52-16,214.4,214.4,0,0,0,68.18-45.32,200.1,200.1,0,0,0,29-36.33c1.48-2.37-2-5.21-3.92-3-13.75,16-23.65,34.68-32.51,53.7s-16.9,38.64-27.43,56.91a163.82,163.82,0,0,1-20.34,28.49c-2.15,2.37,1.31,5.88,3.54,3.53a696.08,696.08,0,0,1,66.68-61.57q10-8.11,20.36-15.85l-3.42-3.42a432.41,432.41,0,0,0-38.27,63.18c-.91,1.84.61,4.36,2.82,3.67,20.93-6.57,37.79-21.26,52.45-37.09,4.2-4.54,8.27-9.22,12.31-13.92l-3.54-3.53A189.46,189.46,0,0,0,340.67,159c-.85,1.89.56,4.31,2.83,3.67a176,176,0,0,0,59.57-29.92,179.28,179.28,0,0,0,14.37-12.33c2.19-2.1-.59-5-3-3.93-20.69,9.21-41,19.29-61,29.83s-39.91,21.56-59.73,32.59S254.08,201,234.08,211.64,194,232.54,173.5,242a663.57,663.57,0,0,1-62.62,25.25c-2.61.89-5.22,1.76-7.85,2.61-3,1-1.74,5.82,1.33,4.82a643.25,643.25,0,0,0,63.41-24.62c20.69-9.25,41-19.38,61-30s39.86-21.58,59.66-32.6,39.79-22.19,59.89-32.9,40.35-21,61-30.43q3.76-1.73,7.55-3.4l-3-3.93a170.7,170.7,0,0,1-54.16,35,176.34,176.34,0,0,1-17.57,6l2.82,3.67A184.59,184.59,0,0,1,368,123.35a2.58,2.58,0,0,0,0-3.53,2.53,2.53,0,0,0-3.54,0c-13.66,15.92-28,32.16-46.48,42.67a82.09,82.09,0,0,1-16.07,7l2.82,3.67A433,433,0,0,1,343.05,110c1.44-2-1.45-4.9-3.42-3.42a703.2,703.2,0,0,0-69.89,59.79q-9.25,9-18.17,18.42l3.54,3.53c14.13-15.59,24.32-34.1,33.27-53s16.95-38.65,27.22-57.09a174.08,174.08,0,0,1,19.78-29l-3.93-3a199.52,199.52,0,0,1-55.38,57.94A209.38,209.38,0,0,1,203,136.57a195.12,195.12,0,0,1-44.93,4.85l1.26,4.66a450.11,450.11,0,0,1,83-35.56q21.6-6.76,43.81-11.36Q291.7,98,297.27,97a65.64,65.64,0,0,1,9.55-1.4c2.17-.07,5,0,6.59,1.7,2.1,2.19.95,6.09.47,8.71a117.24,117.24,0,0,1-38.83,67.37c-4,3.43-10.22,7.91-15.87,6.37-6-1.61-5.58-9.1-4.8-13.9a249.09,249.09,0,0,1,9.23-37.4c7.85-24,20-47.24,39-64.31,2.33-2.09,4.75-4.09,7.27-6l-3.68-2.83A442.66,442.66,0,0,1,289.89,115q-5.14,14.7-11.32,29c-3.89,9-7.92,18-12.66,26.55-4.58,8.25-10.34,16.19-19.19,20.16l3.67,2.83L257.7,168c.9-3.13-3.76-4.33-4.82-1.33A47.34,47.34,0,0,1,236,189.17l3.76,2.16A59.25,59.25,0,0,1,247.39,157l-4.32-2.52L225.65,192l4.57.6a56.09,56.09,0,0,1-1.56-21.19h-5A154.13,154.13,0,0,1,215,209.35l4.18-1.1a3.92,3.92,0,0,1-.89-4.33c1.08-3-3.75-4.35-4.82-1.33Z" transform="translate(-101.3 -44.94)"/></svg>